PathFileType	4	(X/Y/Z)	pose_F01_0-96.trc
DataRate	CameraRate	NumFrames	NumMarkers	Units	OrigDataRate	OrigDataStartFrame	OrigNumFrames
30	30	8	21	m	30	0	96
Frame#	Time	CHip			RHip			RKnee			RAnkle			RBigToe			RSmallToe			RHeel			LHip			LKnee			LAnkle			LBigToe			LSmallToe			LHeel			Neck			Nose			RShoulder			RElbow			RWrist			LShoulder			LElbow			LWrist			
		X1	Y1	Z1	X2	Y2	Z2	X3	Y3	Z3	X4	Y4	Z4	X5	Y5	Z5	X6	Y6	Z6	X7	Y7	Z7	X8	Y8	Z8	X9	Y9	Z9	X10	Y10	Z10	X11	Y11	Z11	X12	Y12	Z12	X13	Y13	Z13	X14	Y14	Z14	X15	Y15	Z15	X16	Y16	Z16	X17	Y17	Z17	X18	Y18	Z18	X19	Y19	Z19	X20	Y20	Z20	X21	Y21	Z21	
0	0.0	-0.20515678953599223	1.7875202222993467	-0.5797876068484031	-0.19572302275700038	1.805717846687084	-0.5198693275963577	-0.24295930629297433	1.672342539762344	-0.5113823170236605	-0.2355529767465403	1.5589553173978157	-0.48133730936331715	-0.26180661683305406	1.5322627280212777	-0.49615919390327323	-0.22586049632448332	1.5418306280621699	-0.5097429499160921	-0.19318431345237358	1.5617577244006415	-0.4766660676073389	-0.18822574485892204	1.8057554749301639	-0.642569719042012	-0.1704296464296194	1.6940137845058443	-0.6398048306115733	-0.15705018776612384	1.5650298412043089	-0.5668384692664755	-0.20294102075078446	1.535429478051877	-0.6170020908108607	-0.2051424027623084	1.5383266867365097	-0.6141688325290428	-0.15775538229219904	1.5525887739988118	-0.588344448254592	-1.660988499483613	1.8900957994768037	1.0237265947331948	-0.2160775801999663	2.0469718115014754	-0.5888892585779228	-1.7478905197054428	1.8910223596284652	1.1672719602059836	-0.18709522387314387	1.9090258603581853	-0.498310858096632	-0.208829012709145	1.8698753943379403	-0.39807102548532525	-1.4881076579184784	1.8893915157840826	0.7426960216294269	-0.12388241652581104	1.9024056607991975	-0.7695878433270399	-0.06895378958024159	1.7537888389031355	-0.8080460630478272
1	0.03333333333333333	-0.2017559151279127	1.7926956975881625	-0.5796087962710685	-0.19532256852723479	1.8083003396355135	-0.5202561148772554	-0.2378036354691547	1.6746801974305832	-0.512883670254094	-0.2298902670064166	1.5596822710185614	-0.4825883615408173	-0.2580417329728377	1.5324553613257899	-0.49962651235669253	-0.22586049632448332	1.5418306280621699	-0.5097429499160921	-0.19149760024551635	1.5603373649952639	-0.4786458714993241	-0.18486293287006375	1.8087541161298712	-0.6420943630280938	-0.16956110008021333	1.6939286878824031	-0.6363939077093637	-0.1579320016861323	1.5650522920946175	-0.5699837320553328	-0.20290622654656618	1.5354267836884536	-0.6170547826990864	-0.20300814643146065	1.5382732968596196	-0.616391245304449	-0.15776198265893873	1.5526387249675675	-0.5884000223584844	-1.661165489446829	1.890104568756454	1.0240572472055058	-0.21410478351444942	2.0456400724927284	-0.5911938346652639	-1.7573932056343864	1.8911676941073474	1.1846212518851564	-0.18882600197429028	1.9089121039580483	-0.4959289457168378	-0.21578415561251563	1.8724887566539665	-0.4124405356785958	-1.488149657019814	1.8894898813834415	0.7427555798616686	-0.12205060040409328	1.90361768606978	-0.7632666625494645	-0.08198487098855925	1.768492224525005	-0.7962140789891937
2	0.06666666666666667	-0.19835504071983315	1.7978711728769783	-0.5794299856937339	-0.1949221142974692	1.810882832583943	-0.5206429021581531	-0.23264796464533508	1.6770178550988224	-0.5143850234845274	-0.2242275572662929	1.560409224639307	-0.48383941371831746	-0.2542768491126214	1.532647994630302	-0.5030938308101118	-0.22586049632448332	1.5418306280621699	-0.5097429499160921	-0.18981088703865912	1.5589170055898862	-0.4806256753913093	-0.18150012088120546	1.8117527573295786	-0.6416190070141755	-0.16869255373080724	1.693843591258962	-0.632982984807154	-0.15881381560614077	1.565074742984926	-0.5731289948441901	-0.2028714323423479	1.5354240893250304	-0.6171074745873122	-0.20087389010061288	1.5382199069827294	-0.6186136580798552	-0.15776858302567842	1.5526886759363232	-0.5884555964623769	-1.661342479410045	1.8901133380361042	1.0243878996778168	-0.21213198682893253	2.0443083334839813	-0.5934984107526049	-1.76689589156333	1.8913130285862296	1.2019705435643293	-0.1905567800754367	1.9087983475579113	-0.49354703333704364	-0.22273929851588625	1.8751021189699928	-0.42681004587186633	-1.4881916561211497	1.8895882469828005	0.7428151380939103	-0.12021878428237552	1.9048297113403625	-0.7569454817718891	-0.09501595239687691	1.7831956101468744	-0.7843820949305602
3	0.1	-0.1949541663117536	1.803046648165794	-0.5792511751163993	-0.1945216600677036	1.8134653255323725	-0.5210296894390508	-0.22749229382151545	1.6793555127670616	-0.5158863767149608	-0.2185648475261692	1.5611361782600528	-0.4850904658958176	-0.25051196525240504	1.5328406279348141	-0.5065611492635311	-0.22586049632448332	1.5418306280621699	-0.5097429499160921	-0.18812417383180188	1.5574966461845086	-0.4826054792832945	-0.17813730889234716	1.814751398529286	-0.6411436510002573	-0.16782400738140116	1.6937584946355209	-0.6295720619049443	-0.15969562952614924	1.5650971938752347	-0.5762742576330474	-0.2028366381381296	1.5354213949616071	-0.617160166475538	-0.1987396337697651	1.5381665171058392	-0.6208360708552615	-0.1577751833924181	1.552738626905079	-0.5885111705662693	-1.6615194693732611	1.8901221073157544	1.0247185521501279	-0.21015919014341564	2.0429765944752343	-0.5958029868399459	-1.7763985774922735	1.8914583630651118	1.2193198352435022	-0.1922875581765831	1.9086845911577743	-0.49116512095724946	-0.22969444141925688	1.877715481286019	-0.44117955606513687	-1.4882336552224853	1.8896866125821594	0.742874696326152	-0.11838696816065776	1.906041736610945	-0.7506243009943138	-0.10804703380519456	1.797898995768744	-0.7725501108719267
4	0.13333333333333333	-0.19155329190367407	1.8082221234546099	-0.5790723645390647	-0.19412120583793802	1.816047818480802	-0.5214164767199485	-0.22233662299769583	1.6816931704353009	-0.5173877299453943	-0.2129021377860455	1.5618631318807985	-0.48634151807331777	-0.24674708139218873	1.5330332612393263	-0.5100284677169504	-0.22586049632448332	1.5418306280621699	-0.5097429499160921	-0.18643746062494465	1.556076286779131	-0.4845852831752797	-0.17477449690348887	1.8177500397289934	-0.640668294986339	-0.16695546103199507	1.6936733980120797	-0.6261611390027346	-0.1605774434461577	1.5651196447655433	-0.5794195204219047	-0.20280184393391132	1.5354187005981839	-0.6172128583637637	-0.19660537743891734	1.538113127228949	-0.6230584836306677	-0.1577817837591578	1.5527885778738346	-0.5885667446701618	-1.6616964593364771	1.8901308765954046	1.0250492046224389	-0.20818639345789874	2.041644855466487	-0.598107562927287	-1.785901263421217	1.891603697543994	1.236669126922675	-0.19401833627772952	1.9085708347576373	-0.4887832085774553	-0.2366495843226275	1.8803288436020453	-0.4555490662584074	-1.488275654323821	1.8897849781815184	0.7429342545583937	-0.11655515203894	1.9072537618815275	-0.7443031202167384	-0.12107811521351222	1.8126023813906134	-0.7607181268132932
5	0.16666666666666666	-0.18815241749559453	1.8133975987434257	-0.5788935539617301	-0.19372075160817243	1.8186303114292315	-0.5218032640008462	-0.2171809521738762	1.68403082810354	-0.5188890831758277	-0.2072394280459218	1.5625900855015442	-0.4875925702508179	-0.2429821975319724	1.5332258945438384	-0.5134957861703697	-0.22586049632448332	1.5418306280621699	-0.5097429499160921	-0.18475074741808742	1.5546559273737532	-0.4865650870672649	-0.17141168491463057	1.8207486809287008	-0.6401929389724208	-0.166086914682589	1.6935883013886386	-0.622750216100525	-0.16145925736616618	1.565142095655852	-0.582564783210762	-0.20276704972969303	1.5354160062347606	-0.6172655502519895	-0.19447112110806958	1.5380597373520588	-0.625280896406074	-0.1577883841258975	1.5528385288425903	-0.5886223187740542	-1.6618734492996932	1.8901396458750548	1.0253798570947499	-0.20621359677238185	2.04031311645774	-0.600412139014628	-1.7954039493501606	1.8917490320228763	1.254018418601848	-0.19574911437887593	1.9084570783575003	-0.4864012961976611	-0.24360472722599813	1.8829422059180716	-0.46991857645167795	-1.4883176534251565	1.8898833437808773	0.7429938127906354	-0.11472333591722224	1.90846578715211	-0.737981939439163	-0.13410919662182988	1.8273057670124828	-0.7488861427546597
6	0.2	-0.18475154308751499	1.8185730740322414	-0.5787147433843955	-0.19332029737840684	1.821212804377661	-0.5221900512817439	-0.21202528135005658	1.6863684857717793	-0.5203904364062611	-0.2015767183057981	1.56331703912229	-0.4888436224283181	-0.23921731367175605	1.5334185278483505	-0.516963104623789	-0.22586049632448332	1.5418306280621699	-0.5097429499160921	-0.1830640342112302	1.5532355679683756	-0.48854489095925013	-0.16804887292577228	1.8237473221284082	-0.6397175829585026	-0.1652183683331829	1.6935032047651974	-0.6193392931983153	-0.16234107128617464	1.5651645465461606	-0.5857100459996193	-0.20273225552547475	1.5354133118713373	-0.6173182421402152	-0.1923368647772218	1.5380063474751686	-0.6275033091814802	-0.15779498449263718	1.552888479811346	-0.5886778928779467	-1.6620504392629092	1.890148415154705	1.025710509567061	-0.20424080008686496	2.038981377448993	-0.602716715101969	-1.804906635279104	1.8918943665017585	1.2713677102810208	-0.19747989248002235	1.9083433219573633	-0.4840193838178669	-0.25055987012936876	1.8855555682340979	-0.4842880866449485	-1.4883596525264922	1.8899817093802362	0.743053371022877	-0.11289151979550448	1.9096778124226925	-0.7316607586615876	-0.14714027803014754	1.8420091526343523	-0.7370541586960262
7	0.23333333333333334	-0.18135066867943544	1.8237485493210572	-0.578535932807061	-0.19291984314864125	1.8237952973260905	-0.5225768385626416	-0.20686961052623695	1.6887061434400186	-0.5218917896366946	-0.1959140085656744	1.5640439927430356	-0.49009467460581824	-0.23545242981153972	1.5336111611528627	-0.5204304230772083	-0.22586049632448332	1.5418306280621699	-0.5097429499160921	-0.18137732100437295	1.551815208562998	-0.49052469485123534	-0.16468606093691399	1.8267459633281156	-0.6392422269445843	-0.16434982198377682	1.6934181081417563	-0.6159283702961056	-0.1632228852061831	1.5651869974364692	-0.5888553087884766	-0.20269746132125646	1.535410617507914	-0.617370934028441	-0.19020260844637404	1.5379529575982784	-0.6297257219568865	-0.15780158485937687	1.5529384307801017	-0.5887334669818391	-0.16046784185820454	1.9832734236619285	-0.6102875875030547	-0.20226800340134807	2.037649638440246	-0.60502129118931	-1.8147679687960623	1.8919701308238361	1.2890653309559432	-0.19921067058116876	1.9082295655572263	-0.48163747143807273	-0.2575150130327394	1.8881689305501241	-0.49865759683821903	-0.1352275751039507	1.9856214505500012	-0.6942020278534289	-0.11105970367378672	1.910889837693275	-0.7253395778840123	-0.1601713594384652	1.8567125382562217	-0.7252221746373927
